<svg xmlns:dc="http://purl.org/dc/elements/1.1/" xmlns:cc="http://creativecommons.org/ns#" xmlns:rdf="http://www.w3.org/1999/02/22-rdf-syntax-ns#" xmlns:svg="http://www.w3.org/2000/svg" xmlns="http://www.w3.org/2000/svg" xmlns:sodipodi="http://sodipodi.sourceforge.net/DTD/sodipodi-0.dtd" xmlns:inkscape="http://www.inkscape.org/namespaces/inkscape" width="249.3999993801117" height="47.59999990463257" version="1.1" inkscape:version="0.92.0 r15299" sodipodi:docname="logo.svg" style=""><rect id="backgroundrect" width="100%" height="100%" x="0" y="0" fill="none" stroke="none" style="" class="selected"/>
  <sodipodi:namedview id="base" pagecolor="#ffffff" bordercolor="#666666" borderopacity="1.0" inkscape:pageopacity="1" inkscape:pageshadow="2" inkscape:zoom="0.98994949" inkscape:cx="430.96299" inkscape:cy="304.56449" inkscape:document-units="mm" inkscape:current-layer="layer1" showgrid="false" inkscape:window-width="1600" inkscape:window-height="878" inkscape:window-x="-8" inkscape:window-y="-8" inkscape:window-maximized="1" showguides="false"/>
  <defs id="defs3680"/>
  <metadata id="metadata3683">
    <rdf:RDF>
      <cc:Work rdf:about="">
        <dc:format>image/svg+xml</dc:format>
        <dc:type rdf:resource="http://purl.org/dc/dcmitype/StillImage"/>
        <dc:title/>
      </cc:Work>
    </rdf:RDF>
  </metadata>
  
<g class="currentLayer" style=""><title>Layer 1</title><g id="layer1" inkscape:groupmode="layer" inkscape:label="Layer 1" class="">
    <path inkscape:connector-curvature="0" id="path4497" style="font-style: normal; font-variant: normal; font-weight: normal; font-stretch: normal; font-size: medium; line-height: 23.005px; font-family: &quot;Pump Demi Bold LET&quot;; letter-spacing: 0px; word-spacing: 0px; fill: rgb(0, 128, 0); fill-opacity: 1; stroke: none; stroke-width: 0.9202;" d="m35.12719917297363,20.145549774169922 v12.975542068481445 h-9.702693939208984 v-11.70115852355957 v-1.332309603691101 q0,-2.7515106201171875 -0.6951169967651367,-3.9969305992126465 q-0.6661564707756042,-1.2164576053619385 -1.8246864080429077,-1.8536485433578491 q-1.1874938011169434,-0.6661548018455505 -2.5777294635772705,-0.6661548018455505 q-2.172245740890503,0 -3.7072970867156982,1.5350531339645386 q-1.5350531339645386,1.592979073524475 -1.5350531339645386,3.794187068939209 q0,2.2012078762054443 1.56401526927948,3.678333282470703 q1.5350531339645386,1.5060893297195435 3.823150873184204,1.5060893297195435 q1.3612734079360962,0 3.18595814704895,-0.6661548018455505 v9.934399604797363 q-1.6798688173294067,0.376521497964859 -3.0990684032440186,0.376521497964859 q-4.083820343017578,0 -7.588374137878418,-1.9695005416870117 q-3.5335192680358887,-1.969502329826355 -5.5030198097229,-5.358204364776611 q-1.9984660148620605,-3.388701915740967 -1.9984660148620605,-7.472522258758545 q0,-4.054856300354004 1.9984660148620605,-7.5304484367370605 q1.9695005416870117,-3.4466278553009033 5.3582024574279785,-5.44509220123291 q3.3597397804260254,-1.9984644651412964 7.414595603942871,-1.9984644651412964 q4.083818435668945,0 7.501484394073486,1.9405384063720703 q3.388701915740967,1.9405384063720703 5.416130065917969,5.3582024574279785 q1.969502329826355,3.417665481567383 1.969502329826355,7.385632038116455 z"/>
    <path inkscape:connector-curvature="0" id="path4499" style="font-style: normal; font-variant: normal; font-weight: normal; font-stretch: normal; font-size: medium; line-height: 23.005px; font-family: &quot;Pump Demi Bold LET&quot;; letter-spacing: 0px; word-spacing: 0px; fill: rgb(0, 128, 0); fill-opacity: 1; stroke: none; stroke-width: 0.9202;" d="m39.06619834899902,5.7508087158203125 v-1.332309603691101 h9.702692031860352 l-0.02895897813141346,0.9847502708435059 v2.6356570720672607 q0,2.92529034614563 0.1737796515226364,5.2713141441345215 q0.1737796515226364,2.4329137802124023 0.5503011345863342,4.141746520996094 q0.4054853618144989,1.8246848583221436 0.9557880759239197,3.18595814704895 q0.6082288026809692,1.4771270751953125 1.5350531339645386,2.9832162857055664 q1.7957226037979126,-2.7515106201171875 2.4908394813537598,-6.227100372314453 q0.6951186060905457,-3.446629285812378 0.6951186060905457,-9.3840970993042 v-2.6066949367523193 l-0.02895897813141346,-0.9847502708435059 h9.702693939208984 v1.332309603691101 q0,4.199674129486084 -0.23170728981494904,7.849043846130371 q-0.2027418613433838,3.2728495597839355 -0.7240808010101318,5.850579261779785 q-0.5503028035163879,2.548767328262329 -1.5060893297195435,4.923754692077637 q-0.9268242716789246,2.288097620010376 -2.2301719188690186,4.373452186584473 q-1.303345799446106,2.056392192840576 -3.417664051055908,4.373453617095947 h-9.528922080993652 Q44.71403694152832,30.340621948242188 43.17898750305176,27.820816040039062 Q41.67289161682129,25.30101776123047 40.746070861816406,22.17298126220703 Q39.848209381103516,19.044952392578125 39.44272422790527,15.134910583496094 Q39.06619834899902,11.369674682617188 39.06619834899902,5.7508087158203125 z"/>
    <path inkscape:connector-curvature="0" id="path4501" style="font-style: normal; font-variant: normal; font-weight: normal; font-stretch: normal; font-size: medium; line-height: 23.005px; font-family: &quot;Pump Demi Bold LET&quot;; letter-spacing: 0px; word-spacing: 0px; fill: rgb(0, 128, 0); fill-opacity: 1; stroke: none; stroke-width: 0.9202;" d="m77.79007530212402,18.842208862304688 q0,1.4481632709503174 0.7240824699401855,2.6066949367523193 q0.6951169967651367,1.2164559364318848 1.9115746021270752,1.9115746021270752 q1.2164576053619385,0.6951186060905457 2.6066932678222656,0.6951186060905457 q1.3902372121810913,0 2.6066932678222656,-0.6951186060905457 q1.1874938011169434,-0.6951186060905457 1.9405384063720703,-1.9115746021270752 q0.6951186060905457,-1.1874938011169434 0.6951186060905457,-2.6066949367523193 q0,-1.4191994667053223 -0.6951186060905457,-2.635655641555786 q-0.7240808010101318,-1.1874938011169434 -1.9115746021270752,-1.9115761518478394 q-1.2164576053619385,-0.6951186060905457 -2.6356570720672607,-0.6951186060905457 q-1.4191994667053223,0 -2.6066932678222656,0.6951186060905457 q-1.2164576053619385,0.7240824699401855 -1.9115746021270752,1.9115761518478394 q-0.7240824699401855,1.1874938011169434 -0.7240824699401855,2.635655641555786 zm-9.644766807556152,0 q0,-3.0701045989990234 1.1585315465927124,-5.763688087463379 q1.1874938011169434,-2.7515106201171875 3.2149219512939453,-4.7789387702941895 q2.0563902854919434,-2.056392192840576 4.778937339782715,-3.2149219512939453 q2.6935832500457764,-1.1295660734176636 5.734725475311279,-1.1295660734176636 q3.1280322074890137,0 5.821615219116211,1.1585299968719482 q2.7515106201171875,1.1585299968719482 4.721013069152832,3.156994342803955 q2.027428150177002,2.027428150177002 3.18595814704895,4.721013069152832 q1.1585299968719482,2.6935832500457764 1.1585299968719482,5.850577354431152 q0,3.0990700721740723 -1.1585299968719482,5.7636895179748535 q-1.1874938011169434,2.7225468158721924 -3.18595814704895,4.721011161804199 q-1.9984660148620605,1.9984660148620605 -4.7789387702941895,3.185959815979004 q-2.780472993850708,1.1874938011169434 -5.7636895179748535,1.1874938011169434 q-4.083818435668945,0 -7.472519874572754,-1.9984660148620605 q-3.417665481567383,-1.9984644651412964 -5.416130065917969,-5.416130065917969 q-1.9984660148620605,-3.388701915740967 -1.9984660148620605,-7.4435577392578125 z"/>
    <path inkscape:connector-curvature="0" id="path4503" style="font-style: normal; font-variant: normal; font-weight: normal; font-stretch: normal; font-size: medium; line-height: 23.005px; font-family: &quot;Pump Demi Bold LET&quot;; letter-spacing: 0px; word-spacing: 0px; fill: rgb(0, 0, 0); fill-opacity: 1; stroke: none; stroke-width: 0.9202;" d="m100.49728202819824,33.70036315917969 v-9.905435562133789 q2.519803524017334,0 3.533517360687256,-0.9847502708435059 q1.013714075088501,-0.9847519397735596 1.1874938011169434,-3.417665481567383 l0.20274347066879272,-3.0990684032440186 q0.260669469833374,-3.446629285812378 1.3902356624603271,-5.734727382659912 q1.0716418027877808,-2.25913405418396 3.417665481567383,-3.9969289302825928 q3.5914437770843506,-2.6356570720672607 8.167633056640625,-2.6356570720672607 q0.49238321185112,0 1.4771335124969482,0.08689305186271667 v9.876471519470215 q-0.20274507999420166,-0.02895897813141346 -0.8688982725143433,-0.02895897813141346 q-1.9984596967697144,0 -2.9252920150756836,1.1006039381027222 q-0.8688951134681702,1.042677879333496 -1.0137109756469727,3.7652249336242676 l-0.1737796515226364,3.243884325027466 q-0.1448110044002533,2.6066949367523193 -1.1006039381027222,4.721013069152832 q-0.9847519397735596,2.143280267715454 -2.780472993850708,3.765223264694214 q-1.7667604684829712,1.592979073524475 -4.112784385681152,2.4329137802124023 q-2.3749876022338867,0.8399344086647034 -5.010644912719727,0.8399344086647034 q-0.9557864665985107,0 -1.3902356624603271,-0.02895897813141346 z"/>
    <path inkscape:connector-curvature="0" id="path4505" style="font-style: normal; font-variant: normal; font-weight: normal; font-stretch: normal; font-size: medium; line-height: 23.005px; font-family: &quot;Pump Demi Bold LET&quot;; letter-spacing: 0px; word-spacing: 0px; fill: rgb(0, 0, 0); fill-opacity: 1; stroke: none; stroke-width: 0.9202;" d="m133.312650680542,43.98231506347656 h-9.673733711242676 V21.738525390625 V19.826950073242188 q0,-2.25913405418396 0.34755611419677734,-4.083820343017578 q0.28963813185691833,-1.7377949953079224 1.0137253999710083,-3.330775499343872 q0.6371942162513733,-1.4481616020202637 1.8246735334396362,-2.89632511138916 q1.1006184816360474,-1.4191994667053223 2.374990701675415,-2.403951406478882 q1.3902404308319092,-1.013714075088501 2.8094398975372314,-1.7377949953079224 q1.3612815141677856,-0.6661548018455505 3.099061965942383,-1.0716418027877808 q1.621944546699524,-0.3475577235221863 3.388715982437134,-0.3475577235221863 q4.0258941650390625,0 7.472512245178223,1.9695005416870117 q3.417675256729126,1.969502329826355 5.358200550079346,5.387167930603027 q1.9405416250228882,3.417664051055908 1.9405416250228882,7.501484394073486 q0,3.1280322074890137 -1.1006022691726685,5.850579261779785 q-1.158536434173584,2.751509189605713 -3.243889093399048,4.749973773956299 q-2.14327073097229,2.1143181324005127 -4.865817546844482,3.185959815979004 q-2.7804808616638184,1.1295660734176636 -5.995395183563232,1.1295660734176636 q-1.4481744766235352,0 -2.9832260608673096,-0.376521497964859 v-9.934399604797363 q1.7377965450286865,0.6661548018455505 3.128037214279175,0.6661548018455505 q2.432908773422241,0 3.9679603576660156,-1.4481616020202637 q1.4771335124969482,-1.4481632709503174 1.4771335124969482,-3.7362611293792725 q0,-1.592979073524475 -0.6371942162513733,-2.780472993850708 q-0.6661532521247864,-1.1874938011169434 -1.7957144975662231,-1.8826124668121338 q-1.1874953508377075,-0.6661548018455505 -2.664628744125366,-0.6661548018455505 q-1.4481585025787354,0 -2.6646130084991455,0.6951186060905457 q-1.2164543867111206,0.7240808010101318 -1.8246896266937256,1.8246848583221436 q-0.46340811252593994,0.8688982725143433 -0.5792601704597473,1.7088327407836914 q-0.17378610372543335,0.8978604674339294 -0.17378610372543335,2.3170599937438965 v1.3033474683761597 z"/>
    <path inkscape:connector-curvature="0" id="path4507" style="font-style: normal; font-variant: normal; font-weight: normal; font-stretch: normal; font-size: medium; line-height: 23.005px; font-family: &quot;Pump Demi Bold LET&quot;; letter-spacing: 0px; word-spacing: 0px; fill: rgb(0, 0, 0); fill-opacity: 1; stroke: none; stroke-width: 0.9202;" d="m185.73614311218262,20.145549774169922 v12.975542068481445 h-9.702692031860352 v-11.70115852355957 v-1.332309603691101 q0,-2.7515106201171875 -0.6951122283935547,-3.9969305992126465 q-0.6661532521247864,-1.2164576053619385 -1.8246896266937256,-1.8536485433578491 q-1.1874953508377075,-0.6661548018455505 -2.5777359008789062,-0.6661548018455505 q-2.172245740890503,0 -3.7072970867156982,1.5350531339645386 q-1.5350514650344849,1.592979073524475 -1.5350514650344849,3.794187068939209 q0,2.2012078762054443 1.5640265941619873,3.678333282470703 q1.5350514650344849,1.5060893297195435 3.8231492042541504,1.5060893297195435 q1.3612654209136963,0 3.185955047607422,-0.6661548018455505 v9.934399604797363 q-1.6798624992370605,0.376521497964859 -3.099061965942383,0.376521497964859 q-4.083828449249268,0 -7.588380336761475,-1.9695005416870117 q-3.533527374267578,-1.969502329826355 -5.50302791595459,-5.358204364776611 q-1.9984596967697144,-3.388701915740967 -1.9984596967697144,-7.472522258758545 q0,-4.054856300354004 1.9984596967697144,-7.5304484367370605 q1.9695005416870117,-3.4466278553009033 5.358216762542725,-5.44509220123291 q3.359724998474121,-1.9984644651412964 7.4145941734313965,-1.9984644651412964 q4.083812236785889,0 7.501471519470215,1.9405384063720703 q3.388700008392334,1.9405384063720703 5.416134834289551,5.3582024574279785 q1.9695005416870117,3.417665481567383 1.9695005416870117,7.385632038116455 z"/>
    <path inkscape:connector-curvature="0" id="path4509" style="font-style: normal; font-variant: normal; font-weight: normal; font-stretch: normal; font-size: medium; line-height: 23.005px; font-family: &quot;Pump Demi Bold LET&quot;; letter-spacing: 0px; word-spacing: 0px; fill: rgb(0, 0, 0); fill-opacity: 1; stroke: none; stroke-width: 0.9202;" d="m208.41436576843262,22.520545959472656 l4.721022605895996,8.51519775390625 q-3.7941901683807373,2.664620876312256 -8.602089881896973,2.664620876312256 q-3.9679763317108154,0 -7.327701568603516,-1.9984660148620605 q-3.3597412109375,-1.9984644651412964 -5.300282955169678,-5.416130065917969 q-1.9984596967697144,-3.4466278553009033 -1.9984596967697144,-7.4435577392578125 q0,-4.083818435668945 1.9984596967697144,-7.501484394073486 q1.9405416250228882,-3.417664051055908 5.387159824371338,-5.416130065917969 q3.446634292602539,-1.9695005416870117 7.501487731933594,-1.9695005416870117 q4.518277645111084,0 8.37038516998291,2.664619207382202 l-4.74998140335083,8.51519775390625 q-0.9268162250518799,-0.8109707236289978 -1.7667555809020996,-1.1585299968719482 q-0.8109641671180725,-0.3475593030452728 -1.9115666151046753,-0.3475593030452728 q-1.4191994667053223,0 -2.6356699466705322,0.6951186060905457 q-1.2454133033752441,0.6951186060905457 -1.9115666151046753,1.8826124668121338 q-0.6951122283935547,1.2164559364318848 -0.6951122283935547,2.635655641555786 q0,1.4481632709503174 0.7240711450576782,2.6356570720672607 q0.6951282620429993,1.2164576053619385 1.9115827083587646,1.9115761518478394 q1.2164543867111206,0.6951169967651367 2.6356537342071533,0.6951169967651367 q1.071643352508545,0 1.9115666151046753,-0.376521497964859 q0.9268323183059692,-0.4054853618144989 1.7377965450286865,-1.1874938011169434 z"/>
    <path inkscape:connector-curvature="0" id="path4511" style="font-style: normal; font-variant: normal; font-weight: normal; font-stretch: normal; font-size: medium; line-height: 23.005px; font-family: &quot;Pump Demi Bold LET&quot;; letter-spacing: 0px; word-spacing: 0px; fill: rgb(0, 0, 0); fill-opacity: 1; stroke: none; stroke-width: 0.9202;" d="m225.2420482635498,21.24615478515625 l6.748425483703613,-7.327704429626465 q-1.1295613050460815,-0.5503028035163879 -2.259122610092163,-0.5503028035163879 q-1.3902404308319092,0 -2.5777359008789062,0.6951186060905457 q-1.2164543867111206,0.7530446648597717 -1.8826076984405518,1.9405384063720703 q-0.7240872383117676,1.2454197406768799 -0.7240872383117676,2.6356570720672607 q0,1.2454197406768799 0.6951282620429993,2.6066932678222656 zm13.32309627532959,0.521338939666748 l2.346015691757202,9.470986366271973 q-4.460343837738037,2.4618773460388184 -9.58683967590332,2.4618773460388184 q-4.692047595977783,0 -8.370369911193848,-1.9405384063720703 q-1.9115827083587646,-1.013714075088501 -3.3597412109375,-2.3460254669189453 q-1.4481744766235352,-1.361271858215332 -2.5198018550872803,-3.0701045989990234 q-2.14328670501709,-3.446629285812378 -2.14328670501709,-7.617338180541992 q0,-4.054856300354004 1.9984596967697144,-7.4435577392578125 q1.9405416250228882,-3.3597376346588135 5.416134834289551,-5.387166500091553 q3.446634292602539,-1.969502329826355 7.501487731933594,-1.969502329826355 q3.9390010833740234,0 7.269783020019531,1.8246848583221436 q1.650903582572937,0.8978620767593384 3.0121688842773438,2.2012078762054443 q1.3612815141677856,1.3033474683761597 2.432908773422241,3.041142225265503 l-12.048707962036133,13.033468246459961 q0.6661532521247864,0.1737796515226364 1.2454133033752441,0.1737796515226364 q3.128037214279175,0 6.806375026702881,-2.4329137802124023 z"/>
  </g></g></svg>